<svg xmlns="http://www.w3.org/2000/svg" xmlns:xlink="http://www.w3.org/1999/xlink" width="100pt" height="50pt" version="1.1" viewBox="0 0 100 50"><g id="surface1"><path style="stroke:none;fill-rule:nonzero;fill:#000;fill-opacity:1" d="M 9.234375 0.128906 C 8.574219 0.503906 7.484375 2.511719 6.839844 4.492188 C 5.964844 7.246094 5.574219 9.683594 5.574219 12.496094 C 5.574219 14.535156 5.652344 15.195312 6.101562 16.65625 C 6.390625 17.578125 6.859375 18.726562 7.148438 19.183594 C 7.8125 20.21875 9.039062 21.050781 9.878906 21.078125 C 10.402344 21.078125 10.496094 21.195312 10.496094 21.792969 C 10.496094 22.199219 10.324219 23.144531 10.128906 23.949219 C 9.273438 27.246094 7.542969 29.109375 5.265625 29.109375 C 3.648438 29.109375 2.480469 28.339844 2.050781 26.988281 C 1.527344 25.355469 1.644531 24.347656 2.539062 22.742188 C 3.140625 21.710938 3.375 21.019531 3.453125 20.074219 C 3.53125 18.925781 3.492188 18.753906 3.082031 18.554688 C 1.972656 17.949219 0.59375 19.46875 0.164062 21.710938 C 0.046875 22.398438 -0.0117188 23.6875 0.046875 24.605469 C 0.335938 29.3125 2.730469 31.722656 6.703125 31.320312 C 8.886719 31.089844 10.011719 30.460938 11.203125 28.679688 C 12.445312 26.875 12.96875 24.835938 13.226562 21.105469 C 13.4375 17.949219 13.476562 5.867188 13.304688 2.628906 C 13.164062 0.445312 13.164062 0.414062 12.5625 0.300781 C 11.179688 -0.015625 9.605469 -0.101562 9.234375 0.128906 Z M 10.441406 4.203125 C 10.558594 4.433594 10.597656 7.246094 10.535156 11.234375 C 10.460938 17.433594 10.421875 17.917969 10.089844 18.0625 C 9.449219 18.378906 8.667969 17.578125 8.164062 16.054688 C 7.714844 14.765625 7.675781 14.277344 7.675781 11.175781 C 7.675781 7.449219 7.890625 6.101562 8.691406 4.71875 C 9.195312 3.804688 10.089844 3.546875 10.441406 4.203125 Z M 33.972656 0.90625 C 33.917969 1.136719 33.859375 1.996094 33.859375 2.796875 C 33.859375 3.632812 33.800781 5.152344 33.722656 6.210938 L 33.605469 8.164062 L 32.710938 8.164062 C 31.832031 8.164062 30.410156 8.5625 30.21875 8.824219 C 30.179688 8.910156 30.21875 9.226562 30.335938 9.539062 C 30.527344 10.058594 30.9375 10.289062 33.039062 10.917969 L 33.46875 11.03125 L 33.429688 17.859375 C 33.371094 23.832031 33.410156 24.894531 33.742188 26.445312 C 34.363281 29.488281 35.785156 31.320312 37.226562 30.921875 C 37.945312 30.71875 38.898438 29.199219 39.542969 27.246094 C 39.832031 26.300781 40.085938 25.78125 40.085938 26.101562 C 40.085938 27.046875 41.003906 29.597656 41.488281 30.085938 C 41.742188 30.347656 42.421875 30.660156 42.988281 30.835938 C 44.660156 31.292969 45.632812 30.257812 46.628906 26.933594 L 46.9375 25.8125 L 47.113281 26.644531 C 47.328125 27.792969 48.378906 29.3125 49.078125 29.515625 C 49.839844 29.742188 50.851562 29.082031 51.378906 28.023438 L 51.824219 27.128906 L 52.234375 28.339844 C 52.777344 29.886719 53.363281 30.492188 54.765625 30.863281 C 55.796875 31.121094 55.96875 31.121094 56.417969 30.601562 C 56.691406 30.316406 57.15625 29.429688 57.449219 28.652344 L 57.992188 27.246094 L 57.992188 30.660156 L 56.554688 32.753906 C 54.960938 35.050781 53.792969 38.0625 53.226562 41.304688 C 52.273438 46.847656 53.480469 49.285156 57.195312 49.3125 C 58.792969 49.34375 58.8125 49.34375 59.355469 48.398438 C 60.273438 46.789062 60.410156 45.585938 60.527344 38.296875 L 60.621094 31.550781 L 61.246094 31.550781 C 61.597656 31.550781 61.984375 31.378906 62.125 31.175781 C 62.335938 30.863281 62.296875 30.691406 61.90625 30.230469 C 61.65625 29.945312 61.226562 29.6875 60.953125 29.6875 L 60.464844 29.6875 L 60.566406 25.007812 C 60.644531 21.421875 60.742188 20.132812 60.992188 19.410156 L 61.324219 18.464844 L 60.683594 18.09375 L 60.039062 17.691406 L 60.039062 15.105469 C 60.039062 12.640625 60 12.464844 59.496094 11.664062 C 59.203125 11.207031 58.582031 10.691406 58.132812 10.492188 C 57.683594 10.316406 56.90625 9.886719 56.398438 9.539062 C 55.328125 8.824219 54.765625 8.96875 53.832031 10.171875 C 52.503906 11.898438 51.84375 15.28125 51.589844 21.507812 C 51.4375 25.5 51.144531 26.902344 50.40625 27.246094 C 49.859375 27.503906 49.488281 26.988281 49.234375 25.695312 C 48.984375 24.289062 48.984375 21.050781 49.273438 19.441406 C 49.488281 18.179688 49.46875 18.09375 49.003906 17.519531 C 48.554688 16.972656 48.496094 16.65625 48.417969 14.535156 C 48.300781 11.519531 48.011719 10.917969 46.199219 9.828125 C 42.578125 7.648438 40.769531 10.058594 40.085938 18.035156 C 39.988281 19.269531 39.8125 20.445312 39.71875 20.617188 C 39.621094 20.789062 39.386719 21.820312 39.230469 22.886719 C 38.839844 25.296875 38.296875 26.960938 37.632812 27.5625 C 37.167969 28.023438 37.128906 28.023438 36.757812 27.476562 C 36.175781 26.613281 36 23.917969 36.117188 17.917969 C 36.253906 10.40625 36.175781 10.832031 37.476562 10.574219 C 38.082031 10.492188 39.132812 10.375 39.8125 10.375 C 41.15625 10.347656 41.351562 10.085938 40.671875 9.167969 C 40.359375 8.765625 39.832031 8.59375 38.375 8.480469 L 36.484375 8.308594 L 36.523438 6.300781 C 36.542969 5.179688 36.621094 3.660156 36.679688 2.910156 C 36.796875 1.5625 36.777344 1.535156 36.15625 1.164062 C 35.066406 0.53125 34.089844 0.386719 33.972656 0.90625 Z M 57.351562 12.871094 C 57.859375 13.527344 57.898438 13.703125 57.875 15.683594 C 57.839844 19.554688 57.335938 23.917969 56.691406 25.8125 C 56.242188 27.128906 55.441406 28.25 54.9375 28.25 C 54.6875 28.25 54.355469 27.9375 54.160156 27.476562 C 53.636719 26.328125 53.652344 18.753906 54.179688 16.484375 C 54.6875 14.25 55.230469 13.042969 55.929688 12.582031 C 56.730469 12.066406 56.730469 12.066406 57.351562 12.871094 Z M 46.082031 13.472656 C 46.609375 14.476562 46.800781 16.570312 46.433594 17.402344 C 46.277344 17.777344 46.0625 19.441406 45.945312 21.136719 C 45.652344 24.980469 45.265625 26.988281 44.5625 28.023438 C 43.746094 29.199219 43.066406 29.109375 42.675781 27.734375 C 41.917969 25.125 42.230469 17.578125 43.21875 14.738281 C 43.921875 12.699219 45.34375 12.066406 46.082031 13.472656 Z M 57.800781 42.398438 C 57.449219 45.726562 56.613281 47.449219 55.542969 47.078125 C 54.527344 46.699219 54.21875 44.003906 54.785156 40.734375 C 55.210938 38.347656 56.242188 35.222656 57.140625 33.703125 L 57.898438 32.441406 L 57.953125 36.429688 C 57.976562 38.640625 57.914062 41.335938 57.800781 42.398438 Z M 57.800781 42.398438"/><path style="stroke:none;fill-rule:nonzero;fill:#000;fill-opacity:1" d="M 72.496094 10.289062 C 71.503906 11.808594 70.921875 14.105469 70.625 17.777344 C 70.355469 21.222656 69.578125 25.753906 69.03125 27.214844 C 68.703125 28.105469 68.488281 28.394531 68.117188 28.394531 C 67.339844 28.394531 67.085938 26.816406 67.199219 22.511719 C 67.277344 19.902344 67.417969 18.351562 67.75 16.804688 L 68.195312 14.679688 L 67.765625 14.160156 C 67.496094 13.847656 66.832031 13.585938 66.015625 13.472656 C 65.292969 13.390625 64.574219 13.273438 64.417969 13.246094 C 64.222656 13.1875 64.125 12.8125 64.125 12.039062 C 64.109375 10.40625 63.914062 10.085938 63.117188 10.257812 C 61.929688 10.546875 61.929688 10.605469 62.023438 15.421875 C 62.101562 18.238281 62.046875 20.558594 61.890625 21.9375 C 61.535156 24.980469 61.558594 25.207031 61.945312 25.324219 C 62.472656 25.5 62.976562 23.429688 63.386719 19.355469 L 63.757812 15.769531 L 64.90625 15.769531 L 64.828125 19.5 C 64.710938 26.816406 65.742188 30.546875 67.882812 30.546875 C 68.78125 30.546875 69.558594 29.65625 70.121094 27.964844 L 70.609375 26.558594 L 70.921875 27.792969 C 71.09375 28.453125 71.488281 29.34375 71.777344 29.742188 C 72.417969 30.632812 74.230469 31.292969 74.96875 30.863281 C 75.609375 30.519531 76.449219 29 76.972656 27.300781 L 77.386719 25.898438 L 77.753906 27.101562 C 78.6875 30.171875 80.828125 30.402344 82.09375 27.589844 L 82.617188 26.414062 L 82.734375 27.90625 C 82.910156 29.800781 83.125 30.171875 84.195312 30.433594 C 85.886719 30.804688 85.886719 30.777344 86.277344 26.472656 C 86.609375 22.601562 87.117188 19.355469 87.40625 19.355469 C 87.484375 19.355469 87.582031 21.277344 87.621094 23.632812 C 87.679688 27.332031 87.738281 27.996094 88.050781 28.511719 C 88.808594 29.742188 90.699219 29.542969 90.699219 28.222656 C 90.699219 27.214844 91.476562 23.058594 92.117188 20.648438 L 92.742188 18.351562 L 92.839844 22.367188 C 92.917969 25.925781 92.996094 26.558594 93.421875 27.792969 C 93.695312 28.59375 94.140625 29.488281 94.433594 29.800781 C 95.15625 30.574219 96.535156 30.574219 97.238281 29.800781 C 98.738281 28.164062 100.292969 21.078125 99.164062 21.078125 C 98.816406 21.078125 98.582031 21.761719 98.386719 23.226562 C 97.9375 26.902344 96.441406 29 95.757812 26.875 C 95.351562 25.636719 95.289062 20.707031 95.660156 18.351562 C 96.246094 14.621094 96.265625 14.90625 95.484375 14.046875 C 95 13.5 94.453125 13.1875 93.832031 13.101562 L 92.917969 12.984375 L 92.410156 14.652344 C 92.117188 15.597656 91.476562 18.09375 90.949219 20.21875 L 90.015625 24.09375 L 89.957031 19.730469 L 89.898438 15.339844 L 89.335938 14.90625 C 87.777344 13.730469 86.960938 14.792969 86.042969 19.242188 C 85.695312 20.960938 85.382812 22.484375 85.34375 22.65625 C 85.304688 22.800781 85.265625 20.472656 85.265625 17.433594 C 85.246094 14.015625 85.167969 11.867188 85.050781 11.753906 C 84.933594 11.636719 84.371094 11.492188 83.804688 11.410156 L 82.757812 11.234375 L 82.679688 16.65625 C 82.601562 21.222656 82.523438 22.367188 82.171875 23.976562 C 81.410156 27.332031 80.4375 28.367188 79.875 26.386719 C 79.542969 25.207031 79.503906 20.875 79.816406 19.210938 C 80.011719 18.179688 79.992188 18.035156 79.542969 17.488281 C 79.136719 17.003906 79.054688 16.570312 78.941406 14.652344 C 78.785156 12.09375 78.492188 11.003906 77.8125 10.574219 C 75.765625 9.167969 75.417969 9.027344 74.402344 9.027344 C 73.355469 9.027344 73.253906 9.082031 72.496094 10.289062 Z M 76.292969 13.042969 C 76.933594 13.558594 77.363281 16.804688 76.875 17.519531 C 76.78125 17.664062 76.585938 19.15625 76.484375 20.789062 C 76.214844 24.691406 75.789062 26.902344 75.105469 27.996094 C 74.386719 29.109375 73.585938 29.050781 73.199219 27.851562 C 72.535156 25.78125 72.574219 19.957031 73.277344 16.367188 C 73.859375 13.472656 75.085938 12.09375 76.292969 13.042969 Z M 15.675781 11.261719 C 15.519531 11.664062 15.109375 25.265625 15.210938 26.875 C 15.347656 28.765625 15.777344 29.402344 16.902344 29.402344 C 17.386719 29.402344 17.898438 29.285156 18.015625 29.167969 C 18.148438 29.050781 18.382812 27.878906 18.558594 26.53125 C 18.929688 23.859375 19.511719 21.050781 19.9375 19.929688 C 20.195312 19.269531 20.210938 19.527344 20.234375 22.65625 C 20.234375 26.472656 20.503906 27.792969 21.402344 28.480469 C 22.042969 28.96875 23.269531 28.738281 23.96875 27.964844 C 24.550781 27.332031 24.550781 27.332031 24.824219 27.90625 C 25.449219 29.226562 28.132812 30.003906 30.023438 29.402344 C 31.445312 28.96875 32.300781 27.964844 32.300781 26.703125 C 32.300781 25.46875 32.007812 24.921875 29.984375 22.511719 C 27.960938 20.105469 27.628906 19.46875 27.628906 18.0625 C 27.628906 16 29.363281 14.765625 30.371094 16.085938 C 30.839844 16.714844 31.25 16.570312 31.8125 15.597656 C 32.222656 14.878906 32.300781 14.449219 32.261719 13.5 C 32.203125 12.523438 32.105469 12.265625 31.617188 11.925781 C 30.527344 11.148438 26.96875 12.554688 25.703125 14.277344 C 24.6875 15.65625 24.457031 17.777344 25.101562 19.613281 C 25.390625 20.503906 25.429688 20.757812 25.214844 20.875 C 25.078125 20.960938 24.90625 21.59375 24.824219 22.253906 C 24.511719 25.152344 23.480469 27.128906 22.78125 26.125 C 22.527344 25.722656 22.472656 24.863281 22.433594 20.960938 C 22.410156 17.375 22.332031 16.054688 22.101562 15.394531 C 21.769531 14.449219 21.007812 14.015625 20.425781 14.476562 C 19.9375 14.851562 19.164062 16.832031 18.460938 19.441406 L 17.914062 21.507812 L 17.898438 16.855469 C 17.898438 12.355469 17.875 12.179688 17.464844 11.78125 C 16.863281 11.234375 15.816406 10.949219 15.675781 11.261719 Z M 28.699219 24.894531 C 29.167969 25.5 29.574219 26.210938 29.632812 26.53125 C 29.925781 28.136719 28.328125 28.59375 27.085938 27.246094 C 26.675781 26.816406 26.128906 26.242188 25.820312 25.984375 C 25.488281 25.695312 25.332031 25.382812 25.410156 25.097656 C 25.46875 24.863281 25.625 23.949219 25.742188 23.058594 L 25.953125 21.421875 L 26.929688 22.628906 C 27.453125 23.253906 28.25 24.289062 28.699219 24.894531 Z M 28.699219 24.894531"/></g></svg>